<svg width="78" height="56" viewBox="0 0 78 56" fill="none" xmlns="http://www.w3.org/2000/svg">
<g clip-path="url(#clip0_520_51)">
<path d="M7.8225 42H13.4225V14.08H7.8225V42ZM24.5553 26.76V18.64H28.9953C32.1553 18.64 33.5553 20.16 33.5553 22.72C33.5553 25.2 32.1553 26.76 28.9953 26.76H24.5553ZM39.3153 22.72C39.3153 17.88 35.9553 14.08 29.2353 14.08H18.9553V42H24.5553V31.28H29.2353C36.4353 31.28 39.3153 26.96 39.3153 22.72ZM70.5313 27.96C70.5313 19.6 64.2113 13.68 56.2513 13.68C48.3713 13.68 41.9313 19.6 41.9313 27.96C41.9313 36.36 48.3713 42.28 56.2513 42.28C64.1713 42.28 70.5313 36.36 70.5313 27.96ZM47.6913 27.96C47.6913 22.28 51.1713 18.72 56.2513 18.72C61.2913 18.72 64.7713 22.28 64.7713 27.96C64.7713 33.64 61.2913 37.28 56.2513 37.28C51.1713 37.28 47.6913 33.64 47.6913 27.96Z" fill="white"/>
</g>
<defs>
<clipPath id="clip0_520_51">
<rect width="78" height="56" fill="white"/>
</clipPath>
</defs>
</svg>
