<svg width="269" height="56" viewBox="0 0 269 56" fill="none" xmlns="http://www.w3.org/2000/svg">
<g clip-path="url(#clip0_520_44)">
<path d="M9.77617 45H16.7762V10.1H9.77617V45ZM30.6922 25.95V15.8H36.2422C40.1922 15.8 41.9422 17.7 41.9422 20.9C41.9422 24 40.1922 25.95 36.2422 25.95H30.6922ZM49.1422 20.9C49.1422 14.85 44.9422 10.1 36.5422 10.1H23.6922V45H30.6922V31.6H36.5422C45.5422 31.6 49.1422 26.2 49.1422 20.9ZM88.1621 27.45C88.1621 17 80.2621 9.6 70.3121 9.6C60.4621 9.6 52.4121 17 52.4121 27.45C52.4121 37.95 60.4621 45.35 70.3121 45.35C80.2121 45.35 88.1621 37.95 88.1621 27.45ZM59.6121 27.45C59.6121 20.35 63.9621 15.9 70.3121 15.9C76.6121 15.9 80.9621 20.35 80.9621 27.45C80.9621 34.55 76.6121 39.1 70.3121 39.1C63.9621 39.1 59.6121 34.55 59.6121 27.45ZM117.484 10.1H105.284V45H117.484C128.634 45 135.884 38.15 135.884 27.6C135.884 17 128.634 10.1 117.484 10.1ZM112.284 39.05V16H117.234C124.584 16 128.734 20.35 128.734 27.6C128.734 34.85 124.584 39.05 117.234 39.05H112.284ZM153.024 22.6C156.624 22.6 159.524 24.9 159.624 28.55H146.474C147.024 24.75 149.674 22.6 153.024 22.6ZM166.174 36.3H158.624C157.724 38.15 156.074 39.65 153.074 39.65C149.574 39.65 146.774 37.35 146.424 33.25H166.674C166.824 32.35 166.874 31.45 166.874 30.55C166.874 22.3 161.224 16.85 153.224 16.85C145.024 16.85 139.324 22.4 139.324 31.15C139.324 39.85 145.174 45.45 153.224 45.45C160.074 45.45 164.674 41.4 166.174 36.3ZM171.983 45H178.983V33.2L188.383 45H197.483L185.183 31.2L197.383 17.3H188.283L178.983 29.05V8H171.983V45ZM201.182 45H208.182V29.7C208.182 25.25 210.632 22.85 214.432 22.85C218.132 22.85 220.582 25.25 220.582 29.7V45H227.582V28.75C227.582 21.1 223.032 16.9 216.782 16.9C213.082 16.9 209.982 18.4 208.182 20.75V8H201.182V45ZM260.989 31.15C260.989 22.4 254.739 16.85 246.739 16.85C238.739 16.85 232.489 22.4 232.489 31.15C232.489 39.85 238.539 45.45 246.539 45.45C254.589 45.45 260.989 39.85 260.989 31.15ZM239.589 31.15C239.589 25.6 242.939 22.95 246.639 22.95C250.339 22.95 253.789 25.6 253.789 31.15C253.789 36.65 250.239 39.35 246.539 39.35C242.789 39.35 239.589 36.65 239.589 31.15Z" fill="white"/>
</g>
<defs>
<clipPath id="clip0_520_44">
<rect width="269" height="56" fill="white"/>
</clipPath>
</defs>
</svg>
